P3
4 4
255
255
0
0
255
0
0
255
0
0
255
0
0
255
0
0
0
255
37
0
255
37
0
255
37
0
255
37
0
255
37
0
17
255
0
17
255
0
17
255
0
17
255
0
17
255
0
17
255
